<svg width="191" height="191" viewBox="0 0 191 191" fill="none" xmlns="http://www.w3.org/2000/svg">
<circle cx="95.5" cy="95.5" r="93.5" fill="white" stroke="#9ECAE3" stroke-width="4"/>
<path d="M85.1761 108.734H100.304V107.278C100.304 100.993 102.896 97.9744 108.259 94.7784C115.077 90.7656 119.587 85.6165 119.587 77.1293C119.587 64.2386 108.969 57.2784 94.3381 57.2784C80.9858 57.2784 69.9773 63.919 69.7642 78.8338H86.0994C86.206 73.8977 89.9702 70.9148 94.196 70.9148C98.3864 70.9148 101.724 73.7202 101.724 77.946C101.724 82.2784 98.3509 85.0483 93.9119 87.8892C88.2656 91.5114 85.2116 95.2401 85.1761 107.278V108.734ZM93.0241 132.03C97.8892 132.03 102.186 127.911 102.257 122.797C102.186 117.754 97.8892 113.67 93.0241 113.67C87.9105 113.67 83.7202 117.754 83.7912 122.797C83.7202 127.911 87.9105 132.03 93.0241 132.03Z" fill="#3169F9"/>
</svg>
